<svg xmlns="http://www.w3.org/2000/svg" width="512" height="512" viewBox="0 0 512 512" id="facial">
  <ellipse cx="256" cy="80" fill="#24afd6" rx="96" ry="56"></ellipse>
  <path fill="#79d8eb" d="M405.0124,161.8252h0A75.5555,75.5555,0,0,0,374.0883,95.337l-2.3292-1.694A196.8117,196.8117,0,0,0,256,56h0a196.8117,196.8117,0,0,0-115.759,37.643l-2.3292,1.694a75.5555,75.5555,0,0,0-30.9241,66.4881h0a75.5559,75.5559,0,0,0,75.364,70.1728H329.6484A75.5559,75.5559,0,0,0,405.0124,161.8252Z"></path>
  <path fill="#fbb8b0" d="M472,496.002h0a58.5506,58.5506,0,0,0-47.0678-57.4135L312,416.002l-17.6-64H217.6l-17.6,64L87.0678,438.5884A58.5506,58.5506,0,0,0,40,496.0019h0"></path>
  <path fill="#fbb8b0" d="M368,232c0,72.9016-64,152-112,152S144,304.9016,144,232s32-120,112-120S368,159.0984,368,232Z"></path>
  <polygon fill="#fed672" points="432.208 24 443.595 44.821 464.416 56.208 443.595 67.595 432.208 88.416 420.821 67.595 400 56.208 420.821 44.821 432.208 24"></polygon>
  <path d="M432.208,96.416a8.0008,8.0008,0,0,1-7.019-4.1611L414.9263,73.4893,396.1616,63.2266a7.9994,7.9994,0,0,1-.0005-14.0371l18.7652-10.2637L425.189,20.1611a8.0005,8.0005,0,0,1,14.0381,0L449.49,38.9258,468.2549,49.19a7.9994,7.9994,0,0,1-.0005,14.0371L449.49,73.4893,439.2271,92.2549A8.001,8.001,0,0,1,432.208,96.416ZM416.6724,56.208l7.9868,4.3682a7.9968,7.9968,0,0,1,3.1806,3.18l4.3682,7.9873,4.3682-7.9873a7.9974,7.9974,0,0,1,3.1806-3.18l7.9869-4.3682-7.9874-4.3691a8.0057,8.0057,0,0,1-3.18-3.18l-4.3682-7.9873L427.84,48.6592a8.005,8.005,0,0,1-3.18,3.18Z"></path>
  <polygon fill="#fed672" points="55.792 168 67.179 188.821 88 200.208 67.179 211.595 55.792 232.416 44.405 211.595 23.584 200.208 44.405 188.821 55.792 168"></polygon>
  <path d="M55.792,240.416a8.001,8.001,0,0,1-7.0191-4.1611L38.51,217.4893,19.7456,207.2266a7.9994,7.9994,0,0,1,0-14.0371L38.51,182.9258l10.2626-18.7647a8.0005,8.0005,0,0,1,14.0381,0l10.2627,18.7647L91.8389,193.19a7.9994,7.9994,0,0,1-.0005,14.0371L73.0737,217.4893,62.811,236.2549A8.0008,8.0008,0,0,1,55.792,240.416ZM40.2563,200.208l7.9869,4.3682a7.9974,7.9974,0,0,1,3.1806,3.18l4.3682,7.9873,4.3682-7.9873a7.9968,7.9968,0,0,1,3.1806-3.18l7.9868-4.3682L63.34,195.8389a8.005,8.005,0,0,1-3.18-3.18l-4.3682-7.9873-4.3682,7.9873a8.0057,8.0057,0,0,1-3.18,3.18Z"></path>
  <path fill="#dcf9fe" d="M402.68 226.5027C402.68 203.0291 384.3713 184 361.7866 184a39.5275 39.5275 0 0 0-21.1338 6.12 23.9976 23.9976 0 0 0-31.7854 34.8781 42.5762 42.5762 0 0 0-24.597 38.9793 43.4132 43.4132 0 0 0 8.182 25.5068A43.188 43.188 0 0 0 280 320.009c0 23.4737 18.3086 42.503 40.8933 42.503a39.75 39.75 0 0 0 25.36-9.1729c5.681 5.802 12.4066 9.1729 19.6228 9.1729 20.3264 0 36.8039-26.6409 36.8039-59.5039 0-18.2066-5.0627-34.4927-13.03-45.4078A43.1557 43.1557 0 0 0 402.68 226.5027zM109.32 226.5027C109.32 203.0291 127.6287 184 150.2134 184a39.5275 39.5275 0 0 1 21.1338 6.12 23.9976 23.9976 0 0 1 31.7854 34.8781 42.5762 42.5762 0 0 1 24.597 38.9793 43.4132 43.4132 0 0 1-8.182 25.5068A43.188 43.188 0 0 1 232 320.009c0 23.4737-18.3086 42.503-40.8933 42.503a39.75 39.75 0 0 1-25.36-9.1729c-5.681 5.802-12.4066 9.1729-19.6228 9.1729-20.3264 0-36.8039-26.6409-36.8039-59.5039 0-18.2066 5.0627-34.4927 13.03-45.4078A43.1557 43.1557 0 0 1 109.32 226.5027z"></path>
  <path fill="#ffd4cf" d="M423.1946,496l-22.9734-82.5759-34.3574-18.0559L321.6679,333.67l2.5092-2.4017a20,20,0,0,1,23.163-3.24l27.275,14.3928-36.5085-95.6961a20,20,0,0,1,12.3792-27.2072l1.4418-.4458L404.13,288.918a60.0011,60.0011,0,0,1,10.1828,19.3965l29.7024,89.1528,43.18,90.6762V496Z"></path>
  <path d="M496,496H480v-6.1592l-43.1812-88.8769a8.0242,8.0242,0,0,1-.394-.9678l-9.8174-29.4678,15.18-5.0566,9.6519,28.9707,43.7568,90.0615A8.0027,8.0027,0,0,1,496,488Z"></path>
  <path d="M432,496H416v-6.7559L393.5957,418.98,362.1421,402.45a7.9971,7.9971,0,0,1-2.7817-2.4238l-44.1958-61.6983a7.9988,7.9988,0,0,1,.9711-10.4365l2.5093-2.4023a27.9614,27.9614,0,0,1,32.4287-4.5362l8.5,4.4854L330.7,249.7559A28.0012,28.0012,0,0,1,348.123,211.874l1.4439-.4453a8,8,0,0,1,8.769,2.8545L410.4785,284.05a67.7428,67.7428,0,0,1,11.4507,21.8164l14.5273,43.6055-15.18,5.0566-14.5542-43.6855c-.0186-.0547-.0362-.1094-.0533-.1651a51.8048,51.8048,0,0,0-8.8252-16.81c-.0415-.0527-.0825-.1065-.123-.16l-48.4165-64.7812a12.04,12.04,0,0,0-3.8838,14.56q.0856.1919.16.3876L382.09,339.5693a8,8,0,0,1-11.208,9.9268l-27.2754-14.3926a11.9865,11.9865,0,0,0-11.1079-.0517l38.7647,54.1162,32.68,17.1738a8.0042,8.0042,0,0,1,3.9,4.6514l23.7788,74.5761A8.0037,8.0037,0,0,1,432,488Z"></path>
  <path fill="#ffd4cf" d="M88.8054,496l22.9734-82.5759,34.3574-18.0559L190.3321,333.67l-2.5092-2.4017a20,20,0,0,0-23.163-3.24l-27.275,14.3928,36.5085-95.6961a20,20,0,0,0-12.3792-27.2072l-1.4418-.4458L107.8705,288.918a60.0011,60.0011,0,0,0-10.1828,19.3965L67.9853,397.4673l-43.18,90.6762V496Z"></path>
  <path d="M96,496H80v-8a8.0037,8.0037,0,0,1,.3779-2.4307l23.7788-74.5761a8.0042,8.0042,0,0,1,3.9-4.6514l32.68-17.1738,38.7647-54.1162a11.9856,11.9856,0,0,0-11.1075.0517l-27.2758,14.3926a8,8,0,0,1-11.208-9.9268l36.5087-95.6963q.0748-.1962.16-.3876a12.04,12.04,0,0,0-3.8838-14.56L114.2788,293.707c-.0405.0537-.081.1075-.123.16a51.8048,51.8048,0,0,0-8.8252,16.81c-.0171.0557-.0347.11-.0533.1651L75.5752,399.9961a8.0023,8.0023,0,0,1-.3921.9629L32,489.9814V496H16v-7.8564a7.9976,7.9976,0,0,1,.8022-3.4913L60.56,394.4453l29.5107-88.5791a67.7535,67.7535,0,0,1,11.45-21.8154l52.1436-69.7676a7.9983,7.9983,0,0,1,8.769-2.8545l1.4419.4453a28,28,0,0,1,17.4243,37.8819l-28.873,75.6826,8.5-4.4854a27.9626,27.9626,0,0,1,32.4277,4.5352l2.51,2.4033a7.9988,7.9988,0,0,1,.9711,10.4365L152.64,400.0264a7.9971,7.9971,0,0,1-2.7817,2.4238L118.4043,418.98,96,489.2441Z"></path>
  <g>
    <path d="M378.7944 88.8672l-2.33-1.6943q-8.0979-5.8894-16.6323-10.9224c-1.477-16.4668-12.6794-31.5357-31.9194-42.7583C308.5767 22.2119 283.0371 16 256 16s-52.5767 6.2119-71.9131 17.4922c-19.24 11.2226-30.4424 26.2912-31.9194 42.758q-8.5262 5.0307-16.6328 10.9227l-2.3282 1.6943a82.9273 82.9273 0 0 0-24.05 27.2744l14.0167 7.7168a67.0438 67.0438 0 0 1 19.4448-22.0518l2.3286-1.6943a188.8133 188.8133 0 0 1 222.1069 0l2.33 1.6943A67.5865 67.5865 0 0 1 390.5542 185.69a47.7776 47.7776 0 0 0-22.292-9.2476c-6.459-20.011-17.0063-36.1221-31.4033-47.9448-16.4258-13.4893-38.0117-21.4932-64.1587-23.791l-1.4 15.9394c41.3654 3.634 67.718 22.1357 80.2809 56.4651a47.702 47.702 0 0 0-11.0983 3.9343A32.0236 32.0236 0 0 0 298.09 221.9258 51.6365 51.6365 0 0 0 282.521 288.71 51.0788 51.0788 0 0 0 272 320.0088c0 17.4641 8.0183 32.5947 20.4779 41.6282C279.5955 370.9636 266.9158 376 256 376s-23.5959-5.0361-36.4783-14.3628C231.9814 352.6038 240 337.4731 240 320.0088A51.0841 51.0841 0 0 0 229.479 288.71 51.6352 51.6352 0 0 0 213.91 221.9268a32.0115 32.0115 0 0 0-42.3921-40.8819 47.7083 47.7083 0 0 0-11.0855-3.9316c6.2383-16.918 15.9868-30.1658 29.06-39.459C205.9717 125.94 228.3481 120 256 120V104c-31.0405 0-56.5361 6.9355-75.7783 20.6133-17.0313 12.1069-29.2871 29.5254-36.4843 51.8288a47.7787 47.7787 0 0 0-22.2918 9.2488 67.6318 67.6318 0 0 1-4.1316-47.5259l-15.4034-4.33a83.6266 83.6266 0 0 0 7.95 64.18 51.8663 51.8663 0 0 0-1.8891 53.9241l13.9258-7.879a35.7018 35.7018 0 0 1-4.5772-17.5576C117.32 207.4775 132.0762 192 150.2134 192a31.6511 31.6511 0 0 1 16.873 4.8916 8.0032 8.0032 0 0 0 8.4859.0215 15.9977 15.9977 0 0 1 21.186 23.251 8 8 0 0 0 3.0781 12.123c12.0845 5.4649 19.8931 17.9043 19.8931 31.69a35.2841 35.2841 0 0 1-6.665 20.8194 8.0005 8.0005 0 0 0 .8076 10.3252A35.0334 35.0334 0 0 1 224 320.0088c0 19.3476-14.0562 34.5029-32 34.5029v16a47.4474 47.4474 0 0 0 11.163-1.3193q.5761.4771 1.1527.9448L193.5942 409.125l-67.163 13.4326 3.1376 15.69 72-14.4a8.0006 8.0006 0 0 0 6.1451-5.7237L218.2 379.9917C231.19 387.897 244.0081 392 256 392s24.81-4.103 37.8-12.009l10.4862 38.132a8.0006 8.0006 0 0 0 6.1451 5.7237l72 14.4 3.1376-15.69-67.163-13.4326-10.7217-38.989q.576-.4673 1.1516-.9439A47.4415 47.4415 0 0 0 320 370.5117v-16c-17.9438 0-32-15.1553-32-34.5029a35.0318 35.0318 0 0 1 10.1279-24.8867 8 8 0 0 0 .8076-10.3252 35.2841 35.2841 0 0 1-6.665-20.8194c0-13.7871 7.8081-26.2255 19.8926-31.69a7.9991 7.9991 0 0 0 3.0791-12.1221A15.852 15.852 0 0 1 312 210.5117a15.9976 15.9976 0 0 1 24.4277-13.5986 8.0074 8.0074 0 0 0 8.4859-.0215A31.6511 31.6511 0 0 1 361.7866 192c18.1372 0 32.8931 15.4775 32.8931 34.5029a35.7033 35.7033 0 0 1-4.5776 17.5576l13.9257 7.879a51.8639 51.8639 0 0 0-1.8891-53.9244A83.5853 83.5853 0 0 0 378.7944 88.8672zM256 48a203.656 203.656 0 0 0-83.9963 17.96C183.3127 46.5369 217.2085 32 256 32s72.6875 14.5369 83.9963 33.96A203.6543 203.6543 0 0 0 256 48zM304 440.752V440H288v.752a25.9182 25.9182 0 0 0 21.7256 25.6464l80.959 13.4932 2.6308-15.7832L312.356 450.6152A9.9679 9.9679 0 0 1 304 440.752zM208 440.752a9.9679 9.9679 0 0 1-8.356 9.8632l-80.9594 13.4932 2.6308 15.7832 80.9585-13.4932A25.9182 25.9182 0 0 0 224 440.752V440H208z"></path>
  </g>
</svg>
