<svg xmlns="http://www.w3.org/2000/svg" enable-background="new 0 0 64 64" viewBox="0 0 64 64" id="facial-implants">
  <path fill="#f4b2b0" d="M36,15c1.207,6.036,5.977,10.723,12.033,11.825L48.999,27L49,14c0-3.64-2.169-6.93-5.515-8.364L42,5
		c-2.596-1.947-5.754-3-9-3c-9.941,0-18,8.059-18,18v7l0.342-0.053C23.482,25.695,30.855,21.431,36,15z"></path>
  <path fill="#b3404a" d="M39 30c1.615 0 3.067-.897 3.789-2.342l.105-.211-1.789-.895L41 26.764C40.619 27.526 39.853 28 39 28s-1.619-.474-2-1.236l-.105-.211-1.789.895.105.21C35.933 29.103 37.385 30 39 30zM25 30c1.615 0 3.067-.897 3.789-2.342l.105-.211-1.789-.895L27 26.764C26.619 27.526 25.853 28 25 28s-1.619-.474-2-1.236l-.105-.211-1.789.895.105.21C21.933 29.103 23.385 30 25 30zM29.013 37.84c-.051.317.053.64.28.867l2 2 1.414-1.414-1.161-1.161C32.464 37.273 33 36.067 33 34.764V30h-2v4.764c0 .998-.555 1.896-1.447 2.342C29.265 37.25 29.064 37.522 29.013 37.84zM36.942 41.503c-2.938 1.959-6.947 1.959-9.885 0l-.503-.335-1.109 1.664.503.335C27.746 44.366 29.839 45 32 45s4.254-.634 6.052-1.833l.503-.335-1.109-1.664L36.942 41.503z"></path>
  <path fill="#b3404a" d="M54.205,57.389L40,55.146v-5.588c4.012-3.458,6.814-8.106,7.974-13.328L48.025,36h0.974
				C51.205,36,53,34.205,53,31.999v-1.998c0-1.859-1.28-3.412-3.001-3.859L50,20.145c0.919,0.79,1.583,1.868,1.828,3.094
				l0.191,0.957C52.113,24.664,52.523,25,53,25s0.887-0.336,0.98-0.804l0.191-0.957c0.416-2.079,2.014-3.755,4.07-4.269
				C58.688,18.859,59,18.459,59,18s-0.312-0.859-0.758-0.97c-2.057-0.514-3.654-2.19-4.07-4.269l-0.191-0.957
				C53.887,11.336,53.477,11,53,11s-0.887,0.336-0.98,0.804l-0.191,0.957c-0.245,1.226-0.909,2.304-1.828,3.094V14
				c0-4.045-2.402-7.689-6.121-9.282l-1.377-0.59C39.768,2.11,36.398,1,33,1C22.523,1,14,9.523,14,20v6.142c-1.72,0.448-3,2-3,3.859
				v1.998C11,34.205,12.795,36,15.001,36h0.974l0.051,0.229c1.16,5.222,3.962,9.87,7.974,13.328v5.588L9.795,57.389
				C7.017,57.827,5,60.188,5,63h2c0-1.822,1.307-3.352,3.107-3.637l15.049-2.376C25.642,56.911,26,56.492,26,56v-4.881
				C27.77,52.349,29.844,53,32,53s4.23-0.651,6-1.881V56c0,0.492,0.358,0.911,0.844,0.987l15.049,2.376
				C55.693,59.648,57,61.178,57,63h2C59,60.188,56.983,57.827,54.205,57.389z M53,15.302c0.604,1.092,1.474,2.021,2.522,2.698
				c-1.049,0.676-1.918,1.605-2.522,2.698c-0.604-1.092-1.474-2.021-2.522-2.698C51.526,17.324,52.396,16.395,53,15.302z M51,30.001
				v1.998C51,33.103,50.103,34,48.999,34h-0.53l1.299-5.845C50.491,28.457,51,29.17,51,30.001z M48,14v2.95
				c-0.082,0.025-0.159,0.059-0.242,0.08C47.312,17.141,47,17.541,47,18s0.312,0.859,0.758,0.97c0.083,0.021,0.161,0.055,0.242,0.08
				l-0.001,6.744c-5.363-1.059-9.554-5.055-10.87-10.328c3.078-2.081,5.127-5.334,5.673-9.034l0.289,0.124
				C46.073,7.833,48,10.755,48,14z M33,3c2.815,0,5.602,0.88,7.922,2.471l-0.088,0.615c-0.48,3.369-2.431,6.305-5.349,8.056
				c-0.102,0.061-0.192,0.14-0.267,0.233C30.39,20.413,23.588,24.448,16,25.815V20C16,10.626,23.626,3,33,3z M15.001,34
				C13.897,34,13,33.103,13,31.999v-1.998c0-0.831,0.509-1.544,1.232-1.846L15.531,34H15.001z M27.115,49.46
				c-3.745-2.621-6.554-6.281-8.161-10.496c0.342-0.016,0.686-0.022,1.022-0.065l-0.254-1.984C19.282,36.972,18.832,37,18.384,37
				h-0.078c-0.112-0.4-0.236-0.796-0.327-1.204l-1.773-7.978c7.486-1.314,14.259-5.077,19.317-10.711
				c1.817,5.511,6.456,9.612,12.274,10.69l-1.777,7.998C45.93,36.204,45.806,36.6,45.694,37h-0.078
				c-0.448,0-0.898-0.028-1.338-0.085l-0.254,1.984c0.336,0.043,0.68,0.049,1.022,0.065c-1.607,4.215-4.417,7.875-8.161,10.496
				C34.008,51.476,29.992,51.476,27.115,49.46z"></path>
  <path fill="#b3404a" d="M36.443 35.017c.493.528 1.036 1.018 1.612 1.452l1.205-1.596c-.484-.366-.94-.777-1.356-1.222L36.443 35.017zM42.495 36.527c-.577-.178-1.145-.408-1.688-.687l-.912 1.779c.646.331 1.322.606 2.01.819L42.495 36.527zM36.78 32.216c-.333-.51-.622-1.051-.861-1.609l-1.838.787c.284.664.628 1.308 1.023 1.914L36.78 32.216zM27.557 35.017l-1.461-1.365c-.416.444-.872.855-1.356 1.222l1.205 1.596C26.521 36.034 27.063 35.545 27.557 35.017zM21.505 36.527l.59 1.912c.688-.213 1.363-.488 2.01-.819l-.912-1.779C22.649 36.119 22.082 36.35 21.505 36.527zM27.22 32.216l1.676 1.092c.396-.606.739-1.25 1.023-1.914l-1.838-.787C27.842 31.165 27.553 31.706 27.22 32.216zM8.555 48.896c.042.021.086.039.131.055 1.552.517 2.714 1.772 3.111 3.358l.233.934C12.142 53.688 12.541 54 13 54s.858-.312.97-.758l.233-.934c.397-1.586 1.56-2.842 3.111-3.358.045-.016.091-.034.133-.056.339-.17.552-.517.552-.896 0-.378-.215-.725-.554-.895-.042-.021-.086-.039-.131-.055-1.551-.517-2.715-1.771-3.111-3.357l-.233-.936c-.111-.445-.512-.758-.971-.758s-.858.312-.97.757l-.234.934c-.396 1.587-1.559 2.844-3.111 3.362C8.3 47.18 8.032 47.526 8.004 47.93 7.975 48.333 8.193 48.715 8.555 48.896zM12.999 45.979c.468.794 1.093 1.48 1.837 2.021-.744.541-1.368 1.228-1.836 2.021-.468-.794-1.092-1.481-1.836-2.021C11.908 47.459 12.532 46.771 12.999 45.979z"></path>
</svg>
